<?xml version="1.0" standalone="no"?><!DOCTYPE svg PUBLIC "-//W3C//DTD SVG 1.1//EN" "http://www.w3.org/Graphics/SVG/1.1/DTD/svg11.dtd"><svg t="1495695632757" class="icon" style="" viewBox="0 0 1024 1024" version="1.1" xmlns="http://www.w3.org/2000/svg" p-id="15379" xmlns:xlink="http://www.w3.org/1999/xlink" width="64" height="64"><defs><style type="text/css"></style></defs><path d="M511.916601 62.498426c97.803513 75.398224 203.088418 127.888715 383.744941 127.888715l0 331.36599c0 158.029176-203.062835 437.019285-383.744941 437.019285-180.657546 0-383.858528-278.991132-383.858528-437.019285L128.058073 190.387142C308.604078 190.387142 413.9995 137.89665 511.916601 62.498426L511.916601 62.498426zM511.906367 137.01456c-81.635275 62.860676-169.506579 106.622366-320.030827 106.622366l0 276.268114c0 131.75272 169.414481 364.352265 320.030827 364.352265 150.638859 0 319.93566-232.599546 319.93566-364.352265L831.842027 243.636926C681.225681 243.636926 593.447499 199.875237 511.906367 137.01456L511.906367 137.01456zM737.413378 378.440122l-24.77629-24.723078c-6.197142-6.182816-17.71036-4.702092-25.715685 3.308349L457.593368 586.523297 336.115666 470.827275c-8.314363-7.919367-19.946284-9.195429-25.979698-2.852978l-24.12035 25.362644c-6.033413 6.344498-4.183276 17.905812 4.131087 25.824155l152.367223 145.118122c3.078105 2.930749 6.610558 4.946662 10.146081 6.007831 6.389524 2.62171 15.115256 0.414439 21.567201-6.0416l259.913635-260.106016C742.144122 396.130016 743.611543 384.623961 737.413378 378.440122z" fill="#2f9be3" p-id="15380"></path></svg>