<?xml version="1.0" standalone="no"?><!DOCTYPE svg PUBLIC "-//W3C//DTD SVG 1.1//EN" "http://www.w3.org/Graphics/SVG/1.1/DTD/svg11.dtd"><svg t="1494059954852" class="icon" style="" viewBox="0 0 1024 1024" version="1.1" xmlns="http://www.w3.org/2000/svg" p-id="11841" xmlns:xlink="http://www.w3.org/1999/xlink" width="48" height="48"><defs><style type="text/css"></style></defs><path d="M418.216255 707.06412c0 7.593444 6.177206 13.77065 13.77065 13.77065h88.198452a13.800783 13.800783 0 0 0 13.77065-13.77065v-107.483388h107.483389a13.77065 13.77065 0 0 0 13.77065-13.77065v-88.198453a13.800783 13.800783 0 0 0-13.77065-13.77065h-107.483389V376.357591a13.800783 13.800783 0 0 0-13.77065-13.77065h-88.198452a13.77065 13.77065 0 0 0-13.77065 13.77065v107.483388H310.732866a13.800783 13.800783 0 0 0-13.77065 13.77065v88.198453c0 7.623576 6.177206 13.77065 13.77065 13.77065h107.483389z m27.089309-647.702675H70.816202C35.169202 59.361445 15.824 78.616249 15.824 114.594709l0.030133 739.81838c0 44.53615 16.663391 63.037636 30.162846 73.975811 17.959097 16.54286 47.248095 32.663861 47.248094 32.663862s48.724598 29.680723 109.984404 45.620928L203.27961 246.786923h249.408469c71.414531 0 151.537416 14.162375 226.598005 89.072301 74.277139 77.652002 83.437483 159.91431 83.437483 205.746167 0 46.64544-8.798752 127.099785-83.497748 205.866698-74.216873 74.488068-154.882147 89.162699-226.417209 89.162699h-75.874172l-0.030133 187.365212h68.883383c111.15958 0 241.543831-22.328341 362.376011-140.659506 127.009387-126.466998 141.985346-271.40535 141.985346-340.138069 0-56.679634-11.058706-213.430009-140.237648-341.373511-125.382221-127.49151-269.958979-142.437336-364.545567-142.437336z" fill="#2196f3" p-id="11842"></path></svg>
