<?xml version="1.0" standalone="no"?><!DOCTYPE svg PUBLIC "-//W3C//DTD SVG 1.1//EN" "http://www.w3.org/Graphics/SVG/1.1/DTD/svg11.dtd"><svg t="1494298867376" class="icon" style="" viewBox="0 0 1024 1024" version="1.1" xmlns="http://www.w3.org/2000/svg" p-id="3472" xmlns:xlink="http://www.w3.org/1999/xlink" width="48" height="48"><defs><style type="text/css"></style></defs><path d="M807.936 240.896c0 31.168-8.512 60.48-24.32 89.728-35.84 66.24-108.992 132.16-205.248 217.28L540.928 585.344 503.552 547.904C364.8 425.152 273.984 342.4 273.984 240.896c0-82.752 64.064-146.816 146.816-146.816 45.44 0 90.816 21.376 120.128 56.064 27.52-32.512 69.056-53.248 111.488-55.808 2.88-0.128 5.824-0.256 8.704-0.256 30.72 0 59.072 8.832 82.24 24.256 36.8 24.448 61.312 65.088 64.256 112.896C807.872 234.432 807.936 237.696 807.936 240.896z" p-id="3473" fill="#2196f3"></path><path d="M871.296 176c-3.712-59.264-33.92-109.632-79.552-139.84-28.864-19.136-63.744-30.08-101.952-30.08-3.52 0-7.168 0.128-10.688 0.256C626.496 9.472 575.04 35.264 540.928 75.584 504.64 32.64 448.384 6.144 392.064 6.144c-102.528 0-181.888 79.36-181.888 181.888 0 125.76 112.512 228.224 284.48 380.352l46.272 46.272 46.336-46.272c119.296-105.408 209.92-187.136 254.336-269.184 19.584-36.288 30.08-72.704 30.08-111.168C871.616 184 871.552 179.968 871.296 176zM813.056 300.096c-40.256 74.368-122.176 148.352-230.208 243.84L540.928 585.856 499.072 543.936c-155.712-137.728-257.472-230.592-257.472-344.32 0-92.864 71.872-164.736 164.672-164.736 50.88 0 101.824 24 134.72 62.912 30.912-36.416 77.504-59.84 125.056-62.656 3.264-0.128 6.528-0.32 9.6-0.32 34.688 0 66.24 9.984 92.288 27.328 41.344 27.264 68.8 73.024 72 126.528 0.256 3.712 0.448 7.296 0.448 10.944C840.384 234.496 830.784 267.392 813.056 300.096z" p-id="3474" fill="#2196f3"></path><path d="M948.8 723.904c-1.088 5.696-24.64 28.416-61.248 56.448l0 0.064c-53.888 41.344-135.936 94.336-214.464 120.768-24.768 8.448-33.728 10.176-76.992 12.48-37.952 1.984-62.336 3.584-83.776 4.672 0 0 0 0-0.064 0-35.776 1.664-63.104 2.304-131.584 2.304-6.528 0-14.016 1.792-22.08 4.928-51.008 19.776-124.608 92.224-124.608 92.224l-159.424-154.496c0 0 39.104-62.272 84.032-115.904 11.904-14.208 24.128-27.712 36.16-39.296 16.512-15.872 32.704-28.288 46.976-33.792 45.312-17.28 139.904-13.248 219.84-24.192 105.408-14.336 136.512-27.392 189.44-28.224 40-0.576 46.976 76.352-36.992 113.344-15.744 7.04-94.272 25.664-113.536 34.752 0 0 125.248 29.312 205.568-7.104 65.536-29.696 133.568-81.344 185.344-84.544 19.712-1.216 44.032 5.888 53.76 22.4C948.864 706.88 950.528 714.624 948.8 723.904z" p-id="3475" fill="#2196f3"></path></svg>
