<?xml version="1.0" standalone="no"?><!DOCTYPE svg PUBLIC "-//W3C//DTD SVG 1.1//EN" "http://www.w3.org/Graphics/SVG/1.1/DTD/svg11.dtd"><svg t="1494059780751" class="icon" style="" viewBox="0 0 1024 1024" version="1.1" xmlns="http://www.w3.org/2000/svg" p-id="4007" xmlns:xlink="http://www.w3.org/1999/xlink" width="48" height="48"><defs><style type="text/css"></style></defs><path d="M10.907201 876.490277 10.907201 840.920521 1013.092799 840.920521 1013.092799 876.490277 10.907201 876.490277ZM746.348668 326.56836 1001.190088 326.56836 1001.190088 754.003977 746.348668 754.003977 746.348668 326.56836ZM890.343852 661.144216 964.176314 661.144216 964.176314 592.085537 890.343852 592.085537 890.343852 661.144216ZM890.343852 546.735144 964.176314 546.735144 964.176314 477.676464 890.343852 477.676464 890.343852 546.735144ZM890.343852 437.296839 964.176314 437.296839 964.176314 368.23816 890.343852 368.23816 890.343852 437.296839ZM780.883027 661.144216 854.715218 661.144216 854.715218 592.085537 780.883027 592.085537 780.883027 661.144216ZM780.883027 546.735144 854.715218 546.735144 854.715218 477.676464 780.883027 477.676464 780.883027 546.735144ZM780.883027 437.296839 854.715218 437.296839 854.715218 368.23816 780.883027 368.23816 780.883027 437.296839ZM308.110855 146.781473 699.899659 146.781473 699.899659 805.200992 308.110855 805.200992 308.110855 146.781473ZM533.378103 733.954578 621.499896 733.954578 621.499896 642.277817 533.378103 642.277817 533.378103 733.954578ZM533.378103 589.698374 621.499896 589.698374 621.499896 498.021613 533.378103 498.021613 533.378103 589.698374ZM481.958597 401.242489 528.404621 401.242489 528.404621 320.614563 609.39423 320.614563 609.39423 274.177764 528.404621 274.177764 528.404621 192.890777 481.958597 192.890777 481.958597 274.177764 400.997206 274.177764 400.997206 320.614563 481.958597 320.614563 481.958597 401.242489ZM389.088526 733.954578 477.210319 733.954578 477.210319 642.277817 389.088526 642.277817 389.088526 733.954578ZM389.088526 589.698374 477.210319 589.698374 477.210319 498.021613 389.088526 498.021613 389.088526 589.698374ZM19.927572 326.56836 274.767635 326.56836 274.767635 754.003977 19.927572 754.003977 19.927572 326.56836ZM163.921399 661.144216 237.75359 661.144216 237.75359 592.085537 163.921399 592.085537 163.921399 661.144216ZM163.921399 546.735144 237.75359 546.735144 237.75359 477.676464 163.921399 477.676464 163.921399 546.735144ZM163.921399 437.296839 237.75359 437.296839 237.75359 368.23816 163.921399 368.23816 163.921399 437.296839ZM54.462202 661.144216 128.294393 661.144216 128.294393 592.085537 54.462202 592.085537 54.462202 661.144216ZM54.462202 546.735144 128.294393 546.735144 128.294393 477.676464 54.462202 477.676464 54.462202 546.735144ZM54.462202 437.296839 128.294393 437.296839 128.294393 368.23816 54.462202 368.23816 54.462202 437.296839Z" p-id="4008" fill="#2196f3"></path></svg>
