<?xml version="1.0" standalone="no"?><!DOCTYPE svg PUBLIC "-//W3C//DTD SVG 1.1//EN" "http://www.w3.org/Graphics/SVG/1.1/DTD/svg11.dtd"><svg t="1496386270998" class="icon" style="" viewBox="0 0 1024 1024" version="1.1" xmlns="http://www.w3.org/2000/svg" p-id="6435" xmlns:xlink="http://www.w3.org/1999/xlink" width="64" height="64"><defs><style type="text/css"></style></defs><path d="M112 216.761l0 590.479 800 0L912 216.761 112 216.761zM873.904 769.144 150.095 769.144 150.095 254.856l723.809 0L873.904 769.144z" p-id="6436" fill="#1296db"></path><path d="M340.208 492.021c44.042 0 79.872-40.738 79.872-90.811 0-50.059-35.83-90.785-79.872-90.785-44.013 0-79.82 40.726-79.82 90.785C260.388 451.283 296.195 492.021 340.208 492.021zM340.208 348.52c23.036 0 41.776 23.637 41.776 52.69 0 29.067-18.741 52.716-41.776 52.716-23.007 0-41.725-23.648-41.725-52.716C298.483 372.156 317.201 348.52 340.208 348.52z" p-id="6437" fill="#1296db"></path><path d="M341.797 555.227c61.867 0 104.98 28.531 104.98 54.138l38.095 0c0-51.72-62.847-92.233-143.076-92.233s-143.075 40.514-143.075 92.233l38.095 0C236.818 583.758 279.931 555.227 341.797 555.227z" p-id="6438" fill="#1296db"></path><path d="M545.812 398.01l172.723 0 0 38.095-172.723 0 0-38.095Z" p-id="6439" fill="#1296db"></path><path d="M545.812 517.898l264.864 0 0 38.096-264.864 0 0-38.096Z" p-id="6440" fill="#1296db"></path><path d="M196.28 678.038l645.119 0 0 38.095-645.119 0 0-38.095Z" p-id="6441" fill="#1296db"></path></svg>