<?xml version="1.0" standalone="no"?><!DOCTYPE svg PUBLIC "-//W3C//DTD SVG 1.1//EN" "http://www.w3.org/Graphics/SVG/1.1/DTD/svg11.dtd"><svg t="1492746614406" class="icon" style="" viewBox="0 0 1024 1024" version="1.1" xmlns="http://www.w3.org/2000/svg" p-id="1004" xmlns:xlink="http://www.w3.org/1999/xlink" width="200" height="200"><defs><style type="text/css"></style></defs><path d="M406.4 564.813H142.413c-29.159 0-52.813 23.603-52.813 52.761v264.039c0 29.158 23.654 52.813 52.813 52.813H406.4c29.158 0 52.813-23.655 52.813-52.813V617.549c0-29.159-23.68-52.736-52.813-52.736z m0 316.8H142.413V617.549H406.4v264.064zM406.4 89.6H142.413c-29.159 0-52.813 23.629-52.813 52.787V406.4c0 29.184 23.654 52.813 52.813 52.813H406.4c29.158 0 52.813-23.655 52.813-52.813V142.387c0-29.158-23.68-52.787-52.813-52.787z m0 316.774H142.413V142.387H406.4v263.987zM881.613 564.813H617.6c-29.158 0-52.813 23.603-52.813 52.761v264.039c0 29.158 23.655 52.813 52.813 52.813h264.013c29.158 0 52.813-23.655 52.813-52.813V617.549c-0.026-29.159-23.655-52.736-52.813-52.736z m0 316.8H617.6V617.549h264.013v264.064zM881.613 89.6H617.6c-29.158 0-52.813 23.629-52.813 52.787V406.4c0 29.184 23.655 52.813 52.813 52.813h264.013c29.158 0 52.813-23.655 52.813-52.813V142.387C934.4 113.23 910.77 89.6 881.613 89.6z m0 316.774H617.6V142.387h264.013v263.987z" p-id="1005" fill="#707070"></path></svg>