<?xml version="1.0" standalone="no"?><!DOCTYPE svg PUBLIC "-//W3C//DTD SVG 1.1//EN" "http://www.w3.org/Graphics/SVG/1.1/DTD/svg11.dtd"><svg t="1496386561064" class="icon" style="" viewBox="0 0 1024 1024" version="1.1" xmlns="http://www.w3.org/2000/svg" p-id="10618" xmlns:xlink="http://www.w3.org/1999/xlink" width="64" height="64"><defs><style type="text/css"></style></defs><path d="M990.487273 538.065455c0-266.24-217.832727-484.072727-484.072728-484.072728s-484.072727 217.832727-484.072727 484.072728c0 124.741818 48.407273 240.174545 126.603637 325.818181l5.585454 5.585455 16.756364 16.756364 5.585454 5.585454c3.723636 1.861818 5.585455 5.585455 9.309091 7.447273 3.723636 3.723636 9.309091 7.447273 13.032727 11.170909 85.643636 70.749091 193.629091 109.847273 307.2 109.847273 128.465455 0 247.621818-48.407273 338.85091-139.636364 89.367273-85.643636 145.221818-206.661818 145.221818-342.574545z m-484.072728-446.836364c245.76 0 446.836364 201.076364 446.836364 446.836364 0 106.123636-37.236364 204.8-102.4 282.996363-57.716364-135.912727-191.767273-227.141818-342.574545-227.141818-152.669091 0-286.72 91.229091-344.436364 229.003636-65.163636-76.334545-104.261818-175.010909-104.261818-284.858181 0-245.76 201.076364-446.836364 446.836363-446.836364z m0 893.672727c-122.88 0-234.589091-50.269091-316.50909-132.189091 48.407273-134.050909 173.149091-221.556364 316.50909-221.556363s269.963636 89.367273 316.509091 221.556363c-81.92 81.92-193.629091 132.189091-316.509091 132.189091z" fill="#1296db" p-id="10619"></path><path d="M506.414545 538.065455c102.4 0 186.181818-83.781818 186.181819-186.181819s-83.781818-186.181818-186.181819-186.181818-186.181818 83.781818-186.181818 186.181818 83.781818 186.181818 186.181818 186.181819z m0-335.127273c81.92 0 148.945455 67.025455 148.945455 148.945454s-67.025455 148.945455-148.945455 148.945455-148.945455-67.025455-148.945454-148.945455 67.025455-148.945455 148.945454-148.945454z" fill="#1296db" p-id="10620"></path></svg>