<?xml version="1.0" standalone="no"?><!DOCTYPE svg PUBLIC "-//W3C//DTD SVG 1.1//EN" "http://www.w3.org/Graphics/SVG/1.1/DTD/svg11.dtd"><svg t="1495695383994" class="icon" style="" viewBox="0 0 1024 1024" version="1.1" xmlns="http://www.w3.org/2000/svg" p-id="7939" xmlns:xlink="http://www.w3.org/1999/xlink" width="64" height="64"><defs><style type="text/css"></style></defs><path d="M512.020588 959.11934a66.353765 66.353765 0 1 1 66.481861-66.353766 66.481861 66.481861 0 0 1-66.481861 66.353766z m0-99.530648a33.176883 33.176883 0 1 0 33.240931 33.176882 33.240931 33.240931 0 0 0-33.240931-33.176882z" fill="#1296db" p-id="7940"></path><path d="M698.720613 1023.807856h-373.464098a115.286465 115.286465 0 0 1-115.286465-114.710033v-794.195646a115.286465 115.286465 0 0 1 115.286465-114.902177h373.40005a115.286465 115.286465 0 0 1 115.158369 114.902177v794.195646a115.286465 115.286465 0 0 1-115.286465 114.902177z m-373.464098-980.63948a71.861896 71.861896 0 0 0-71.797848 71.733801v794.195646a71.861896 71.861896 0 0 0 71.797848 71.541657h373.40005a71.861896 71.861896 0 0 0 71.925944-71.541657v-794.195646a71.861896 71.861896 0 0 0-71.861896-71.733801z" fill="#1296db" p-id="7941"></path><path d="M665.22349 814.691018h-306.405804a81.661246 81.661246 0 0 1-81.597198-81.53315v-584.630472a81.661246 81.661246 0 0 1 81.597198-81.53315h306.405804a81.661246 81.661246 0 0 1 81.661246 81.53315v584.69452a81.661246 81.661246 0 0 1-81.597198 81.53315z m-306.405804-714.51989a48.420315 48.420315 0 0 0-48.420315 48.356268v584.69452a48.420315 48.420315 0 0 0 48.420315 48.356268h306.405804a48.420315 48.420315 0 0 0 48.420315-48.356268v-584.69452a48.420315 48.420315 0 0 0-48.420315-48.356268h-306.405804z" fill="#1296db" p-id="7942"></path></svg>