<?xml version="1.0" standalone="no"?><!DOCTYPE svg PUBLIC "-//W3C//DTD SVG 1.1//EN" "http://www.w3.org/Graphics/SVG/1.1/DTD/svg11.dtd"><svg t="1494060239580" class="icon" style="" viewBox="0 0 1024 1024" version="1.1" xmlns="http://www.w3.org/2000/svg" p-id="32850" xmlns:xlink="http://www.w3.org/1999/xlink" width="48" height="48"><defs><style type="text/css"></style></defs><path d="M915.830986 472.338028C883.380282 263.211268 713.915493 100.957746 515.605634 100.957746 313.690141 100.957746 144.225352 263.211268 115.380282 472.338028L108.169014 472.338028c-14.422535 0-28.84507 14.422535-28.84507 28.84507L79.323944 612.957746c0 18.028169 14.422535 28.84507 28.84507 28.84507l21.633803 0c0 82.929577 21.633803 158.647887 57.690141 223.549296l129.802817-25.239437c57.690141 36.056338 122.591549 57.690141 198.309859 57.690141 75.71831 0 144.225352-21.633803 201.915493-61.295775l129.802817 21.633803c32.450704-64.901408 54.084507-140.619718 54.084507-219.943662l14.422535 0c14.422535 0 28.84507-14.422535 28.84507-28.84507L944.676056 504.788732C941.070423 486.760563 930.253521 472.338028 915.830986 472.338028zM515.605634 847.323944c-126.197183 0-234.366197-75.71831-277.633803-187.492958l176.676056 82.929577c0 18.028169 7.211268 32.450704 25.239437 39.661972 21.633803 10.816901 46.873239 0 57.690141-21.633803 10.816901-21.633803 0-46.873239-21.633803-57.690141-14.422535-7.211268-32.450704-3.605634-46.873239 7.211268l-205.521127-97.352113c-7.211268-21.633803-7.211268-46.873239-7.211268-72.112676 0-28.84507 3.605634-57.690141 10.816901-82.929577 14.422535 0 28.84507 3.605634 43.267606 3.605634 162.253521 0 302.873239-79.323944 367.774648-191.098592 104.56338 46.873239 176.676056 151.43662 176.676056 274.028169C814.873239 710.309859 681.464789 847.323944 515.605634 847.323944zM872.56338 475.943662c-10.816901-36.056338-25.239437-68.507042-43.267606-97.352113-61.295775-111.774648-180.28169-187.492958-313.690141-187.492958s-256 75.71831-313.690141 187.492958c-18.028169 32.450704-32.450704 64.901408-46.873239 100.957746-3.605634-3.605634-7.211268-3.605634-10.816901-3.605634 32.450704-194.704225 183.887324-342.535211 367.774648-342.535211 183.887324 0 338.929577 147.830986 367.774648 342.535211C879.774648 472.338028 876.169014 475.943662 872.56338 475.943662z" p-id="32851" fill="#2196f3"></path><path d="M421.859155 490.366197c-28.84507 0-50.478873 21.633803-50.478873 50.478873s21.633803 50.478873 50.478873 50.478873c18.028169 0 32.450704-7.211268 43.267606-21.633803L436.28169 540.84507l28.84507-28.84507C454.309859 497.577465 439.887324 490.366197 421.859155 490.366197z" p-id="32852" fill="#2196f3"></path><path d="M627.380282 490.366197c-28.84507 0-50.478873 21.633803-50.478873 50.478873s21.633803 50.478873 50.478873 50.478873c18.028169 0 32.450704-7.211268 43.267606-21.633803L638.197183 540.84507l28.84507-28.84507C659.830986 497.577465 645.408451 490.366197 627.380282 490.366197z" p-id="32853" fill="#2196f3"></path></svg>
